<?xml version="1.0" encoding="UTF-8" standalone="yes"?>
<svg width="512" height="512" viewBox="0 0 512 512" fill="none" version="1.2" baseProfile="tiny-ps" xmlns="http://www.w3.org/2000/svg">
  <title>bimi-svg-tiny-12-ps</title>
  <rect width="512" height="512" fill="#0D00FF"/>
  <path d="M220.82 283.288H306.24C294.772 319.802 260.659 346.288 220.36 346.288C170.655 346.288 130.36 305.994 130.36 256.288C130.36 206.582 170.655 166.288 220.36 166.288C222.227 166.288 224.08 166.345 225.919 166.457L254.8 116.433C243.765 113.724 232.23 112.288 220.36 112.288C140.831 112.288 76.3599 176.759 76.3599 256.288C76.3599 335.817 140.831 400.289 220.36 400.289C299.889 400.289 364.36 335.817 364.36 256.288C364.36 247.061 363.493 238.037 361.834 229.292L251.997 229.288L220.82 283.288Z" fill="white"/>
  <path d="M436.36 364.288C436.36 384.171 420.242 400.289 400.36 400.289C380.478 400.289 364.36 384.171 364.36 364.288C364.36 344.406 380.478 328.288 400.36 328.288C420.242 328.288 436.36 344.406 436.36 364.288Z" fill="#EFD22E"/>
</svg>