<svg width="1056" height="536" viewBox="0 0 1056 536" fill="none" xmlns="http://www.w3.org/2000/svg">
<path d="M494.428 226.125H573.916C563.244 260.103 531.5 284.75 494 284.75C447.746 284.75 410.25 247.254 410.25 201C410.25 154.746 447.746 117.25 494 117.25C495.737 117.25 497.462 117.303 499.173 117.407L526.048 70.8568C515.78 68.3365 505.046 67 494 67C419.994 67 360 126.994 360 201C360 275.006 419.994 335 494 335C568.006 335 628 275.006 628 201C628 192.414 627.192 184.016 625.649 175.879L523.44 175.875L494.428 226.125Z" fill="#0C00F4"/>
<path d="M695 301.5C695 320.002 680.002 335 661.5 335C642.998 335 628 320.002 628 301.5C628 282.998 642.998 268 661.5 268C680.002 268 695 282.998 695 301.5Z" fill="#EDCB10"/>
<path fill-rule="evenodd" clip-rule="evenodd" d="M940.979 464.548L940.985 464.551C946.057 467.562 951.828 469.057 958.271 469.057C964.705 469.057 970.433 467.644 975.428 464.789L975.438 464.784C980.425 461.854 983.954 457.984 985.961 453.166L986.309 452.332L972.496 445.556L972.048 446.335C970.672 448.725 968.834 450.597 966.527 451.968C964.327 453.245 961.627 453.907 958.386 453.907C954.074 453.907 950.514 452.598 947.64 450.012C945.006 447.641 943.382 444.538 942.794 440.644H987.492L987.711 439.987C988.293 438.24 988.566 436.017 988.566 433.356C988.566 427.614 987.306 422.323 984.777 417.5C982.316 412.659 978.699 408.845 973.945 406.071C969.171 403.208 963.551 401.795 957.12 401.795C951.128 401.795 945.665 403.256 940.753 406.188L940.747 406.191C935.92 409.119 932.085 413.156 929.247 418.281L929.244 418.285C926.475 423.348 925.1 429.031 925.1 435.311C925.1 441.517 926.476 447.197 929.241 452.332L929.247 452.342C932.088 457.472 936.002 461.546 940.979 464.548ZM966.355 419.561L966.361 419.566L966.366 419.571C968.542 421.555 969.894 424.088 970.405 427.218H943.259C944.141 423.817 945.72 421.223 947.956 419.371L947.962 419.366L947.968 419.361C950.463 417.222 953.494 416.141 957.12 416.141C960.894 416.141 963.947 417.294 966.355 419.561Z" fill="#0C00F4"/>
<path fill-rule="evenodd" clip-rule="evenodd" d="M829.726 402H813.655L813.655 469H830.646L830.646 430.02C830.646 426.137 831.704 423.126 833.733 420.887C835.758 418.653 838.404 417.521 841.764 417.521C845.208 417.521 847.843 418.657 849.783 420.874L849.794 420.886L849.805 420.898C851.82 423.053 852.882 426.053 852.882 430.02V469.147H869.873V430.02C869.873 426.137 870.931 423.126 872.96 420.887C874.985 418.653 877.631 417.521 880.991 417.521C884.435 417.521 887.07 418.657 889.01 420.874L889.021 420.886L889.032 420.898C891.048 423.053 892.109 426.053 892.109 430.02V469H909.1V426.454C909.1 421.709 908.071 417.443 905.989 413.68C903.911 409.923 901.024 406.994 897.339 404.911C893.655 402.829 889.541 401.795 885.017 401.795C880.668 401.795 876.722 402.666 873.199 404.428L873.191 404.432C870.154 405.986 867.619 408.219 865.587 411.112C863.713 408.411 861.205 406.262 858.083 404.665C854.487 402.749 850.537 401.795 846.25 401.795C842.132 401.795 838.448 402.628 835.224 404.319C833.047 405.436 831.212 406.922 829.726 408.769V402Z" fill="#0C00F4"/>
<path d="M778.503 466.171L778.485 466.152C776.375 463.954 775.325 461.245 775.325 458.098C775.325 455.029 776.383 452.402 778.503 450.294C780.711 448.1 783.442 447 786.625 447C789.713 447 792.355 448.052 794.476 450.16C796.604 452.275 797.655 454.95 797.655 458.098C797.655 461.245 796.605 463.954 794.494 466.152C792.45 468.285 789.791 469.33 786.625 469.33C783.458 469.33 780.733 468.286 778.522 466.189L778.503 466.171Z" fill="#EDCB10"/>
<path fill-rule="evenodd" clip-rule="evenodd" d="M716.784 464.308L716.79 464.312C721.79 467.407 727.529 468.942 733.976 468.942C738.914 468.942 743.306 468.119 747.13 466.446C750.95 464.775 753.937 462.407 756.046 459.328C758.235 456.244 759.325 452.714 759.325 448.77C759.325 444.019 757.786 439.879 754.712 436.401C751.647 432.932 747.366 430.473 741.939 428.978L741.898 428.967L731.869 427.123C729.431 426.566 727.715 425.766 726.622 424.788C725.559 423.838 725.044 422.689 725.044 421.277C725.044 419.737 725.633 418.521 726.855 417.552C728.175 416.566 729.982 416.026 732.366 416.026C735.255 416.026 737.874 416.781 740.247 418.292C742.624 419.804 744.378 421.81 745.526 424.322L745.945 425.238L758.783 418.621L758.447 417.805C756.378 412.791 753.064 408.874 748.519 406.082C743.978 403.216 738.736 401.795 732.826 401.795C728.186 401.795 723.985 402.622 720.24 404.295L720.233 404.298C716.558 405.976 713.654 408.387 711.553 411.536C709.445 414.62 708.398 418.146 708.398 422.082C708.398 426.827 709.892 430.997 712.88 434.549L712.887 434.558L712.895 434.567C715.963 438.039 720.25 440.461 725.681 441.878L725.722 441.889L735.999 443.621L736 443.621C738.086 443.981 739.711 444.724 740.93 445.808L740.942 445.818L740.953 445.828C742.12 446.799 742.678 447.988 742.678 449.461C742.678 451.22 741.985 452.58 740.547 453.628C739.16 454.617 737.123 455.172 734.321 455.172C731.138 455.172 728.218 454.308 725.539 452.574C722.932 450.76 720.812 448.248 719.191 445.005L718.756 444.135L705.968 450.726L706.275 451.529C708.344 456.94 711.855 461.207 716.784 464.308Z" fill="#0C00F4"/>
<path fill-rule="evenodd" clip-rule="evenodd" d="M642.382 464.548L642.388 464.551C647.459 467.562 653.23 469.057 659.674 469.057C666.107 469.057 671.836 467.644 676.83 464.789L676.84 464.784C681.828 461.854 685.356 457.984 687.364 453.166L687.711 452.332L673.899 445.556L673.45 446.335C672.074 448.725 670.236 450.598 667.93 451.968C665.729 453.245 663.03 453.907 659.789 453.907C655.476 453.907 651.916 452.598 649.043 450.012C646.409 447.641 644.784 444.538 644.197 440.644H688.895L689.114 439.987C689.696 438.24 689.968 436.017 689.968 433.356C689.968 427.614 688.709 422.323 686.18 417.5C683.719 412.659 680.101 408.845 675.347 406.071C670.574 403.208 664.953 401.795 658.523 401.795C652.531 401.795 647.067 403.256 642.156 406.188L642.15 406.191C637.323 409.119 633.488 413.156 630.649 418.281L630.647 418.285C627.878 423.348 626.503 429.031 626.503 435.311C626.503 441.517 627.879 447.197 630.644 452.332L630.649 452.342C633.491 457.472 637.405 461.546 642.382 464.548ZM667.758 419.561L667.763 419.566L667.769 419.571C669.945 421.555 671.296 424.088 671.808 427.218H644.661C645.544 423.817 647.123 421.223 649.358 419.371L649.364 419.366L649.371 419.361C651.865 417.222 654.897 416.141 658.523 416.141C662.296 416.141 665.349 417.294 667.758 419.561Z" fill="#0C00F4"/>
<path fill-rule="evenodd" clip-rule="evenodd" d="M531.128 402H515.057L515.057 469H532.049L532.049 430.02C532.049 426.137 533.106 423.126 535.136 420.887C537.16 418.653 539.806 417.521 543.166 417.521C546.61 417.521 549.246 418.657 551.186 420.874L551.197 420.886L551.208 420.898C553.223 423.053 554.284 426.053 554.284 430.02V469H571.276V430.02C571.276 426.137 572.333 423.126 574.363 420.887C576.387 418.653 579.034 417.521 582.394 417.521C585.837 417.521 588.473 418.657 590.413 420.874L590.424 420.886L590.435 420.898C592.45 423.053 593.511 426.053 593.511 430.02V469H610.503V426.454C610.503 421.709 609.473 417.443 607.392 413.68C605.313 409.923 602.426 406.994 598.741 404.911C595.058 402.829 590.943 401.795 586.42 401.795C582.07 401.795 578.124 402.666 574.602 404.428L574.594 404.432C571.557 405.986 569.022 408.219 566.99 411.112C565.115 408.411 562.607 406.262 559.486 404.665C555.89 402.749 551.939 401.795 547.653 401.795C543.535 401.795 539.851 402.628 536.627 404.319C534.45 405.436 532.615 406.922 531.128 408.769V402Z" fill="#0C00F4"/>
<path fill-rule="evenodd" clip-rule="evenodd" d="M435.493 452.591L435.498 452.601C438.575 457.729 442.723 461.759 447.931 464.678C453.143 467.6 458.866 469.057 465.081 469.057C471.218 469.057 476.898 467.639 482.106 464.799L482.116 464.793C487.325 461.873 491.436 457.842 494.437 452.711C497.522 447.568 499.057 441.798 499.057 435.426C499.057 429.129 497.52 423.398 494.437 418.257C491.437 413.127 487.326 409.096 482.119 406.176C476.982 403.252 471.296 401.795 465.081 401.795C458.791 401.795 453.03 403.252 447.816 406.175C442.606 409.095 438.494 413.128 435.493 418.261C432.487 423.403 430.99 429.132 430.99 435.426C430.99 441.721 432.487 447.45 435.493 452.591ZM479.186 444.757L479.181 444.765C477.801 447.454 475.886 449.544 473.434 451.059C470.99 452.569 468.215 453.331 465.081 453.331C460.194 453.331 456.239 451.667 453.137 448.352C450.098 444.948 448.557 440.663 448.557 435.426C448.557 431.958 449.256 428.894 450.632 426.211C452.089 423.518 454.044 421.425 456.498 419.909L456.505 419.905C459.026 418.32 461.876 417.521 465.081 417.521C468.206 417.521 470.975 418.318 473.417 419.898L473.425 419.904L473.434 419.909C475.88 421.42 477.794 423.543 479.176 426.308L479.183 426.322L479.191 426.335C480.642 429.02 481.376 432.043 481.376 435.426C481.376 438.89 480.64 441.993 479.186 444.757Z" fill="#0C00F4"/>
<path fill-rule="evenodd" clip-rule="evenodd" d="M352.962 474.06C355.034 479.796 358.823 484.372 364.284 487.776C369.822 491.257 376.215 492.985 383.43 492.985C389.468 492.985 394.878 491.73 399.634 489.195C404.463 486.739 408.24 483.243 410.941 478.715C413.646 474.259 414.99 469.214 414.99 463.61V402H398.804V408.808C394.057 404.126 387.949 401.795 380.554 401.795C374.722 401.795 369.417 403.176 364.66 405.95C359.906 408.645 356.178 412.415 353.487 417.243L353.484 417.248C350.867 422.006 349.569 427.384 349.569 433.356C349.569 439.333 350.908 444.75 353.602 449.583C356.293 454.411 360.019 458.218 364.77 460.989L364.776 460.992C369.609 463.766 374.991 465.146 380.899 465.146C387.819 465.146 393.545 463.158 397.999 459.139V463.61C397.999 467.909 396.625 471.196 393.948 473.592L393.938 473.601C391.311 476.015 387.84 477.259 383.43 477.259C379.666 477.259 376.518 476.411 373.939 474.764C371.36 473.117 369.668 470.921 368.819 468.159L368.518 467.182L352.64 473.168L352.962 474.06ZM397.999 433.471C397.999 438.16 396.542 441.935 393.671 444.879L393.662 444.887C390.871 447.822 387.259 449.305 382.74 449.305C378.143 449.305 374.41 447.82 371.464 444.878C368.587 441.854 367.135 438.075 367.135 433.471C367.135 428.87 368.623 425.091 371.579 422.063C374.531 419.039 378.228 417.521 382.74 417.521C387.17 417.521 390.786 419.035 393.662 422.055L393.671 422.063C396.542 425.006 397.999 428.781 397.999 433.471Z" fill="#0C00F4"/>
<path fill-rule="evenodd" clip-rule="evenodd" d="M285.983 464.548L285.988 464.551C291.06 467.562 296.831 469.057 303.274 469.057C309.708 469.057 315.436 467.644 320.431 464.789L320.441 464.784C325.429 461.854 328.957 457.984 330.964 453.166L331.312 452.332L317.499 445.556L317.051 446.335C315.675 448.725 313.837 450.597 311.53 451.968C309.33 453.245 306.63 453.907 303.389 453.907C299.077 453.907 295.517 452.598 292.643 450.012C290.009 447.641 288.385 444.538 287.797 440.644H332.495L332.714 439.987C333.296 438.24 333.569 436.017 333.569 433.356C333.569 427.614 332.309 422.323 329.781 417.5C327.319 412.659 323.702 408.845 318.948 406.071C314.174 403.208 308.554 401.795 302.124 401.795C296.131 401.795 290.668 403.256 285.756 406.188L285.75 406.191C280.923 409.119 277.088 413.156 274.25 418.281L274.247 418.285C271.479 423.348 270.103 429.031 270.103 435.311C270.103 441.517 271.48 447.197 274.244 452.332L274.25 452.342C277.091 457.472 281.006 461.546 285.983 464.548ZM311.358 419.561L311.364 419.566L311.369 419.571C313.545 421.555 314.897 424.088 315.409 427.218H288.262C289.145 423.817 290.723 421.223 292.959 419.371L292.965 419.366L292.971 419.361C295.466 417.222 298.498 416.141 302.124 416.141C305.897 416.141 308.95 417.294 311.358 419.561Z" fill="#0C00F4"/>
<path fill-rule="evenodd" clip-rule="evenodd" d="M211.563 464.513L211.569 464.517C216.568 467.611 222.307 469.147 228.755 469.147C233.693 469.147 238.084 468.324 241.909 466.65C245.729 464.979 248.716 462.612 250.825 459.533C253.014 456.449 254.103 452.918 254.103 448.975C254.103 444.223 252.565 440.084 249.491 436.605C246.426 433.137 242.144 430.677 236.717 429.183L236.677 429.172L226.648 427.327C224.209 426.771 222.494 425.97 221.4 424.993C220.337 424.043 219.823 422.893 219.823 421.482C219.823 419.942 220.411 418.726 221.634 417.757C222.954 416.77 224.761 416.231 227.144 416.231C230.034 416.231 232.653 416.986 235.026 418.496C237.403 420.009 239.156 422.014 240.305 424.527L240.724 425.443L253.562 418.825L253.225 418.009C251.156 412.996 247.842 409.079 243.297 406.287C238.757 403.42 233.515 402 227.605 402C222.964 402 218.763 402.826 215.019 404.499L215.012 404.503C211.337 406.18 208.433 408.592 206.332 411.741C204.224 414.824 203.176 418.35 203.176 422.287C203.176 427.031 204.671 431.201 207.658 434.754L207.666 434.763L207.674 434.772C210.742 438.244 215.029 440.665 220.46 442.082L220.501 442.093L230.777 443.825L230.78 443.825C232.865 444.185 234.49 444.928 235.709 446.012L235.72 446.022L235.732 446.032C236.898 447.004 237.457 448.193 237.457 449.665C237.457 451.424 236.764 452.785 235.325 453.832C233.938 454.821 231.902 455.376 229.1 455.376C225.917 455.376 222.997 454.513 220.318 452.779C217.71 450.965 215.591 448.452 213.97 445.209L213.535 444.339L200.747 450.931L201.054 451.734C203.123 457.145 206.633 461.412 211.563 464.513Z" fill="#0C00F4"/>
<path fill-rule="evenodd" clip-rule="evenodd" d="M121.183 452.591L121.188 452.601C124.265 457.729 128.413 461.759 133.621 464.678C138.833 467.6 144.556 469.057 150.771 469.057C156.907 469.057 162.588 467.639 167.796 464.799L167.806 464.793C173.014 461.873 177.126 457.842 180.127 452.711C183.211 447.568 184.747 441.798 184.747 435.426C184.747 429.129 183.21 423.398 180.127 418.257C177.126 413.127 173.016 409.096 167.809 406.176C162.672 403.252 156.985 401.795 150.771 401.795C144.481 401.795 138.719 403.252 133.506 406.175C128.296 409.095 124.184 413.128 121.183 418.261C118.177 423.403 116.68 429.132 116.68 435.426C116.68 441.721 118.177 447.45 121.183 452.591ZM164.875 444.757L164.871 444.765C163.49 447.454 161.576 449.544 159.124 451.059C156.68 452.569 153.904 453.331 150.771 453.331C145.884 453.331 141.929 451.667 138.826 448.352C135.788 444.948 134.247 440.663 134.247 435.426C134.247 431.958 134.946 428.894 136.321 426.211C137.779 423.518 139.734 421.425 142.188 419.909L142.195 419.905C144.716 418.32 147.565 417.521 150.771 417.521C153.896 417.521 156.665 418.318 159.107 419.898L159.115 419.904L159.124 419.909C161.57 421.42 163.484 423.543 164.866 426.308L164.873 426.322L164.88 426.335C166.331 429.02 167.065 432.043 167.065 435.426C167.065 438.89 166.33 441.993 164.875 444.757Z" fill="#0C00F4"/>
<path fill-rule="evenodd" clip-rule="evenodd" d="M81.5104 391.152L81.5286 391.171L81.5476 391.189C83.7585 393.286 86.4839 394.33 89.6506 394.33C92.8168 394.33 95.4751 393.285 97.5196 391.152C99.6301 388.954 100.68 386.245 100.68 383.098C100.68 379.95 99.6292 377.275 97.5012 375.16C95.3807 373.052 92.7381 372 89.6506 372C86.4676 372 83.7363 373.1 81.5288 375.294C79.4082 377.402 78.35 380.029 78.35 383.098C78.35 386.245 79.4 388.954 81.5104 391.152ZM67 492.446V477.545L68.1188 477.732C69.4478 477.953 70.7754 478.064 72.1021 478.064C75.2625 478.064 77.535 477.329 79.064 475.999L79.0716 475.992L79.0793 475.986C80.6478 474.679 81.4945 472.72 81.4945 469.937V402H98.4858V469.937C98.4858 477.195 96.3086 482.959 91.8513 487.092C87.4101 491.21 81.362 493.215 73.8277 493.215C71.5512 493.215 69.5215 493.019 67.7479 492.616L67 492.446Z" fill="#0C00F4"/>
</svg>
