<svg width="1038" height="520" viewBox="0 0 1038 520" shape-rendering="optimizeQuality" fill="none" xmlns="http://www.w3.org/2000/svg">
<path d="M494.428 222.125H573.916C563.244 256.103 531.5 280.75 494 280.75C447.746 280.75 410.25 243.254 410.25 197C410.25 150.746 447.746 113.25 494 113.25C495.737 113.25 497.462 113.303 499.173 113.407L526.048 66.8568C515.78 64.3365 505.046 63 494 63C419.994 63 360 122.994 360 197C360 271.006 419.994 331 494 331C568.006 331 628 271.006 628 197C628 188.414 627.192 180.016 625.649 171.879L523.44 171.875L494.428 222.125Z" shape-rendering="optimizeQuality" fill="#0C00F4"/>
<path d="M691 299.5C691 316.897 676.897 331 659.5 331C642.103 331 628 316.897 628 299.5C628 282.103 642.103 268 659.5 268C676.897 268 691 282.103 691 299.5Z" shape-rendering="optimizeQuality" fill="#EDCB10"/>
<path d="M69.0549 479.517L63.0044 466.96C66.277 466.96 68.9027 466.503 70.8815 465.59C72.8603 464.676 74.2682 463.154 75.1054 461.023C76.0187 458.968 76.4753 456.228 76.4753 452.804V395.609H92.6861V456.685C92.6861 461.708 91.7348 465.894 89.8321 469.243C88.0055 472.591 85.3418 475.141 81.8409 476.891C78.34 478.642 74.078 479.517 69.0549 479.517ZM84.9232 383.166C81.8028 383.166 79.3674 382.405 77.6169 380.882C75.8665 379.36 74.9912 377.191 74.9912 374.375C74.9912 371.788 75.8665 369.695 77.6169 368.096C79.4435 366.422 81.8789 365.585 84.9232 365.585C88.0436 365.585 90.479 366.384 92.2295 367.982C93.9799 369.504 94.8552 371.635 94.8552 374.375C94.8552 377.039 93.9419 379.17 92.1153 380.768C90.3649 382.367 87.9675 383.166 84.9232 383.166Z" shape-rendering="optimizeQuality" fill="#0C00F4"/>
<path d="M146.436 457.142C140.271 457.142 134.754 455.81 129.883 453.146C125.088 450.406 121.283 446.677 118.467 441.958C115.727 437.24 114.357 431.836 114.357 425.748C114.357 419.659 115.727 414.293 118.467 409.651C121.283 404.932 125.088 401.203 129.883 398.463C134.754 395.723 140.271 394.353 146.436 394.353C152.525 394.353 157.966 395.723 162.761 398.463C167.632 401.203 171.437 404.932 174.177 409.651C176.917 414.293 178.287 419.659 178.287 425.748C178.287 431.836 176.917 437.24 174.177 441.958C171.437 446.677 167.632 450.406 162.761 453.146C157.966 455.81 152.525 457.142 146.436 457.142ZM146.436 442.986C149.404 442.986 152.068 442.263 154.427 440.817C156.787 439.295 158.613 437.24 159.907 434.652C161.277 431.988 161.962 429.02 161.962 425.748C161.962 422.399 161.277 419.431 159.907 416.843C158.613 414.179 156.787 412.124 154.427 410.678C152.068 409.156 149.404 408.395 146.436 408.395C143.392 408.395 140.69 409.156 138.331 410.678C135.971 412.201 134.107 414.255 132.737 416.843C131.367 419.431 130.72 422.399 130.796 425.748C130.72 429.02 131.367 431.988 132.737 434.652C134.107 437.24 135.971 439.295 138.331 440.817C140.69 442.263 143.392 442.986 146.436 442.986Z" shape-rendering="optimizeQuality" fill="#0C00F4"/>
<path d="M219.937 457.142C214.305 457.142 209.282 456.228 204.868 454.402C200.529 452.499 197.029 449.912 194.365 446.639L204.411 437.963C206.77 440.474 209.396 442.301 212.288 443.442C215.18 444.508 218.072 445.041 220.964 445.041C222.106 445.041 223.133 444.927 224.047 444.698C225.036 444.394 225.873 444.013 226.558 443.557C227.243 443.024 227.738 442.415 228.042 441.73C228.423 440.969 228.613 440.17 228.613 439.333C228.613 437.658 227.928 436.326 226.558 435.337C225.797 434.957 224.617 434.5 223.019 433.967C221.421 433.358 219.366 432.711 216.854 432.026C212.973 431.037 209.662 429.895 206.922 428.602C204.259 427.232 202.128 425.71 200.529 424.035C199.16 422.437 198.094 420.724 197.333 418.898C196.648 416.995 196.306 414.902 196.306 412.619C196.306 409.879 196.914 407.406 198.132 405.199C199.35 402.915 201.024 400.975 203.155 399.376C205.362 397.778 207.874 396.561 210.69 395.723C213.506 394.81 216.474 394.353 219.594 394.353C222.715 394.353 225.759 394.734 228.727 395.495C231.695 396.256 234.435 397.36 236.947 398.806C239.534 400.176 241.779 401.812 243.682 403.715L235.006 413.304C233.636 412.01 232.076 410.831 230.325 409.765C228.651 408.7 226.901 407.862 225.074 407.254C223.247 406.645 221.611 406.34 220.165 406.34C218.871 406.34 217.692 406.454 216.626 406.683C215.637 406.911 214.8 407.254 214.115 407.71C213.43 408.167 212.897 408.776 212.516 409.537C212.212 410.222 212.06 410.983 212.06 411.82C212.06 412.657 212.25 413.456 212.63 414.217C213.087 414.978 213.696 415.625 214.457 416.158C215.294 416.615 216.512 417.147 218.11 417.756C219.785 418.365 222.03 419.05 224.846 419.811C228.499 420.801 231.581 421.904 234.093 423.122C236.68 424.34 238.735 425.748 240.257 427.346C241.551 428.716 242.502 430.276 243.111 432.026C243.72 433.777 244.025 435.718 244.025 437.849C244.025 441.578 242.959 444.927 240.828 447.895C238.773 450.787 235.919 453.07 232.266 454.744C228.613 456.343 224.503 457.142 219.937 457.142Z" shape-rendering="optimizeQuality" fill="#0C00F4"/>
<path d="M453.095 457.142C446.931 457.142 441.413 455.81 436.542 453.146C431.747 450.406 427.942 446.677 425.126 441.958C422.386 437.24 421.016 431.836 421.016 425.748C421.016 419.659 422.386 414.293 425.126 409.651C427.942 404.932 431.747 401.203 436.542 398.463C441.413 395.723 446.931 394.353 453.095 394.353C459.184 394.353 464.626 395.723 469.42 398.463C474.291 401.203 478.096 404.932 480.836 409.651C483.576 414.293 484.946 419.659 484.946 425.748C484.946 431.836 483.576 437.24 480.836 441.958C478.096 446.677 474.291 450.406 469.42 453.146C464.626 455.81 459.184 457.142 453.095 457.142ZM453.095 442.986C456.064 442.986 458.727 442.263 461.087 440.817C463.446 439.295 465.272 437.24 466.566 434.652C467.936 431.988 468.621 429.02 468.621 425.748C468.621 422.399 467.936 419.431 466.566 416.843C465.272 414.179 463.446 412.124 461.087 410.678C458.727 409.156 456.064 408.395 453.095 408.395C450.051 408.395 447.349 409.156 444.99 410.678C442.631 412.201 440.766 414.255 439.396 416.843C438.026 419.431 437.379 422.399 437.455 425.748C437.379 429.02 438.026 431.988 439.396 434.652C440.766 437.24 442.631 439.295 444.99 440.817C447.349 442.263 450.051 442.986 453.095 442.986Z" shape-rendering="optimizeQuality" fill="#0C00F4"/>
<path d="M720.116 457.142C714.484 457.142 709.461 456.228 705.047 454.402C700.709 452.499 697.208 449.912 694.544 446.639L704.59 437.963C706.949 440.474 709.575 442.301 712.467 443.442C715.359 444.508 718.251 445.041 721.143 445.041C722.285 445.041 723.312 444.927 724.226 444.698C725.215 444.394 726.052 444.013 726.737 443.557C727.422 443.024 727.917 442.415 728.221 441.73C728.602 440.969 728.792 440.17 728.792 439.333C728.792 437.658 728.107 436.326 726.737 435.337C725.976 434.957 724.796 434.5 723.198 433.967C721.6 433.358 719.545 432.711 717.034 432.026C713.152 431.037 709.841 429.895 707.102 428.602C704.438 427.232 702.307 425.71 700.709 424.035C699.339 422.437 698.273 420.724 697.512 418.898C696.827 416.995 696.485 414.902 696.485 412.619C696.485 409.879 697.094 407.406 698.311 405.199C699.529 402.915 701.203 400.975 703.334 399.376C705.541 397.778 708.053 396.561 710.869 395.723C713.685 394.81 716.653 394.353 719.773 394.353C722.894 394.353 725.938 394.734 728.906 395.495C731.874 396.256 734.614 397.36 737.126 398.806C739.713 400.176 741.959 401.812 743.861 403.715L735.185 413.304C733.815 412.01 732.255 410.831 730.505 409.765C728.83 408.7 727.08 407.862 725.253 407.254C723.427 406.645 721.79 406.34 720.344 406.34C719.05 406.34 717.871 406.454 716.805 406.683C715.816 406.911 714.979 407.254 714.294 407.71C713.609 408.167 713.076 408.776 712.695 409.537C712.391 410.222 712.239 410.983 712.239 411.82C712.239 412.657 712.429 413.456 712.81 414.217C713.266 414.978 713.875 415.625 714.636 416.158C715.473 416.615 716.691 417.147 718.289 417.756C719.964 418.365 722.209 419.05 725.025 419.811C728.678 420.801 731.76 421.904 734.272 423.122C736.859 424.34 738.914 425.748 740.437 427.346C741.73 428.716 742.682 430.276 743.291 432.026C743.899 433.777 744.204 435.718 744.204 437.849C744.204 441.578 743.138 444.927 741.007 447.895C738.952 450.787 736.098 453.07 732.445 454.744C728.792 456.343 724.682 457.142 720.116 457.142Z" shape-rendering="optimizeQuality" fill="#0C00F4"/>
<path d="M770.944 457.256C767.976 457.256 765.693 456.419 764.094 454.744C762.496 453.07 761.697 450.673 761.697 447.552C761.697 444.736 762.534 442.453 764.209 440.703C765.959 438.876 768.204 437.963 770.944 437.963C773.836 437.963 776.081 438.8 777.68 440.474C779.278 442.149 780.077 444.508 780.077 447.552C780.077 450.444 779.24 452.804 777.565 454.63C775.891 456.381 773.684 457.256 770.944 457.256Z" shape-rendering="optimizeQuality" fill="#EDCB10"/>
<path fill-rule="evenodd" clip-rule="evenodd" d="M293.369 457.142C286.824 457.142 281.115 455.81 276.245 453.146C271.374 450.482 267.568 446.829 264.829 442.187C262.089 437.544 260.719 432.217 260.719 426.204C260.719 421.562 261.48 417.3 263.002 413.418C264.524 409.537 266.655 406.188 269.395 403.372C272.135 400.48 275.369 398.273 279.099 396.751C282.904 395.153 287.014 394.353 291.428 394.353C295.538 394.353 299.343 395.114 302.844 396.637C306.345 398.083 309.351 400.176 311.863 402.915C314.45 405.579 316.429 408.738 317.799 412.391C319.169 416.044 319.778 420.04 319.626 424.378L319.511 429.401H276.441C276.815 431.235 277.434 432.909 278.3 434.424C279.898 437.088 282.105 439.18 284.921 440.703C287.813 442.149 291.2 442.872 295.081 442.872C297.745 442.872 300.18 442.453 302.387 441.616C304.595 440.779 306.954 439.333 309.465 437.278L317.228 448.123C315.021 450.102 312.586 451.776 309.922 453.146C307.258 454.44 304.518 455.429 301.702 456.114C298.886 456.799 296.109 457.142 293.369 457.142ZM302.273 413.418C303.491 415.093 304.176 416.957 304.328 419.012V419.469H276.583C276.883 418.146 277.303 416.929 277.843 415.816C279.061 413.304 280.811 411.401 283.094 410.108C285.454 408.814 288.308 408.167 291.656 408.167C293.94 408.167 295.994 408.623 297.821 409.537C299.648 410.45 301.132 411.744 302.273 413.418Z" shape-rendering="optimizeQuality" fill="#0C00F4"/>
<path fill-rule="evenodd" clip-rule="evenodd" d="M367.693 482.257C362.899 482.257 358.18 481.534 353.538 480.088C348.895 478.718 345.128 476.93 342.236 474.722L347.944 463.078C349.466 464.144 351.216 465.095 353.195 465.932C355.174 466.769 357.229 467.416 359.36 467.873C361.567 468.329 363.812 468.558 366.095 468.558C370.053 468.558 373.287 467.949 375.799 466.731C378.386 465.513 380.327 463.687 381.621 461.251C382.915 458.892 383.562 455.848 383.562 452.119V447.987C383.245 448.381 382.902 448.769 382.534 449.15C380.479 451.205 377.892 452.88 374.771 454.174C371.651 455.391 368.455 456 365.182 456C359.55 456 354.565 454.706 350.227 452.119C345.889 449.531 342.464 445.954 339.952 441.388C337.441 436.821 336.185 431.57 336.185 425.633C336.185 419.545 337.403 414.179 339.838 409.537C342.35 404.818 345.737 401.127 349.999 398.463C354.337 395.723 359.246 394.353 364.725 394.353C367.009 394.353 369.178 394.62 371.232 395.153C373.363 395.685 375.304 396.446 377.055 397.436C378.881 398.349 380.479 399.415 381.849 400.632C382.653 401.267 383.375 401.937 384.014 402.642L384.247 395.609H399.773V451.434C399.773 456.381 399.05 460.757 397.604 464.562C396.157 468.367 394.027 471.564 391.211 474.152C388.471 476.815 385.084 478.832 381.05 480.202C377.093 481.572 372.64 482.257 367.693 482.257ZM376.484 440.817C374.125 442.263 371.347 442.986 368.15 442.986C365.03 442.986 362.252 442.263 359.816 440.817C357.457 439.371 355.631 437.354 354.337 434.766C353.043 432.102 352.396 429.058 352.396 425.633C352.396 422.209 353.043 419.202 354.337 416.615C355.631 414.027 357.457 412.01 359.816 410.564C362.252 409.042 365.03 408.281 368.15 408.281C371.347 408.281 374.125 409.004 376.484 410.45C378.919 411.896 380.784 413.951 382.078 416.615C383.372 419.202 384.018 422.209 384.018 425.633C384.018 429.134 383.372 432.179 382.078 434.766C380.784 437.354 378.919 439.371 376.484 440.817Z" shape-rendering="optimizeQuality" fill="#0C00F4"/>
<path d="M506.161 456V395.609H521.801L522.036 403.524C522.358 403.08 522.699 402.649 523.057 402.23C524.427 400.632 526.025 399.262 527.852 398.121C529.754 396.979 531.733 396.104 533.788 395.495C535.843 394.81 537.898 394.468 539.953 394.468C543.073 394.468 545.889 394.962 548.401 395.952C550.912 396.941 553.043 398.501 554.794 400.632C555.974 402.018 556.982 403.716 557.816 405.725C558.693 404.324 559.74 403.045 560.958 401.888C562.48 400.366 564.193 399.072 566.096 398.007C567.998 396.865 569.977 395.99 572.032 395.381C574.087 394.772 576.104 394.468 578.082 394.468C582.801 394.468 586.72 395.419 589.841 397.322C592.961 399.148 595.283 401.926 596.805 405.655C598.403 409.385 599.202 413.951 599.202 419.355V456H582.991V420.496C582.991 417.756 582.611 415.511 581.85 413.761C581.089 412.01 579.985 410.716 578.539 409.879C577.093 408.966 575.228 408.509 572.945 408.509C571.195 408.509 569.558 408.814 568.036 409.423C566.59 409.955 565.296 410.754 564.155 411.82C563.089 412.809 562.252 413.989 561.643 415.359C561.034 416.729 560.73 418.251 560.73 419.925V456H544.519V420.382C544.519 417.87 544.101 415.739 543.263 413.989C542.502 412.162 541.399 410.793 539.953 409.879C538.507 408.966 536.718 408.509 534.587 408.509C532.837 408.509 531.2 408.814 529.678 409.423C528.232 409.955 526.977 410.754 525.911 411.82C524.846 412.809 523.97 413.989 523.285 415.359C522.676 416.729 522.372 418.213 522.372 419.811V456H506.161Z" shape-rendering="optimizeQuality" fill="#0C00F4"/>
<path fill-rule="evenodd" clip-rule="evenodd" d="M652.426 457.142C645.881 457.142 640.173 455.81 635.302 453.146C630.431 450.482 626.626 446.829 623.886 442.187C621.146 437.544 619.776 432.217 619.776 426.204C619.776 421.562 620.537 417.3 622.059 413.418C623.581 409.537 625.712 406.188 628.452 403.372C631.192 400.48 634.427 398.273 638.156 396.751C641.961 395.153 646.071 394.353 650.485 394.353C654.595 394.353 658.4 395.114 661.901 396.637C665.402 398.083 668.408 400.176 670.92 402.915C673.507 405.579 675.486 408.738 676.856 412.391C678.226 416.044 678.835 420.04 678.683 424.378L678.569 429.401H635.498C635.872 431.235 636.491 432.909 637.357 434.424C638.955 437.088 641.162 439.18 643.978 440.703C646.87 442.149 650.257 442.872 654.138 442.872C656.802 442.872 659.237 442.453 661.445 441.616C663.652 440.779 666.011 439.333 668.522 437.278L676.285 448.123C674.078 450.102 671.643 451.776 668.979 453.146C666.315 454.44 663.576 455.429 660.76 456.114C657.944 456.799 655.166 457.142 652.426 457.142ZM661.33 413.418C662.548 415.093 663.233 416.957 663.385 419.012V419.469H635.64C635.94 418.146 636.36 416.929 636.9 415.816C638.118 413.304 639.868 411.401 642.151 410.108C644.511 408.814 647.365 408.167 650.713 408.167C652.997 408.167 655.052 408.623 656.878 409.537C658.705 410.45 660.189 411.744 661.33 413.418Z" shape-rendering="optimizeQuality" fill="#0C00F4"/>
<path d="M802.118 456V395.609H817.758L817.993 403.524C818.315 403.08 818.655 402.649 819.014 402.23C820.384 400.632 821.982 399.262 823.808 398.121C825.711 396.979 827.69 396.104 829.745 395.495C831.8 394.81 833.855 394.468 835.909 394.468C839.03 394.468 841.846 394.962 844.357 395.952C846.869 396.941 849 398.501 850.75 400.632C851.931 402.018 852.938 403.716 853.773 405.725C854.65 404.324 855.697 403.045 856.915 401.888C858.437 400.366 860.15 399.072 862.052 398.007C863.955 396.865 865.934 395.99 867.989 395.381C870.043 394.772 872.06 394.468 874.039 394.468C878.758 394.468 882.677 395.419 885.798 397.322C888.918 399.148 891.239 401.926 892.761 405.655C894.36 409.385 895.159 413.951 895.159 419.355V456H878.948V420.496C878.948 417.756 878.567 415.511 877.806 413.761C877.045 412.01 875.942 410.716 874.496 409.879C873.05 408.966 871.185 408.509 868.902 408.509C867.151 408.509 865.515 408.814 863.993 409.423C862.547 409.955 861.253 410.754 860.111 411.82C859.046 412.809 858.209 413.989 857.6 415.359C856.991 416.729 856.687 418.251 856.687 419.925V456H840.476V420.382C840.476 417.87 840.057 415.739 839.22 413.989C838.459 412.162 837.355 410.793 835.909 409.879C834.463 408.966 832.675 408.509 830.544 408.509C828.793 408.509 827.157 408.814 825.635 409.423C824.189 409.955 822.933 410.754 821.868 411.82C820.802 412.809 819.927 413.989 819.242 415.359C818.633 416.729 818.329 418.213 818.329 419.811V456H802.118Z" shape-rendering="optimizeQuality" fill="#0C00F4"/>
<path fill-rule="evenodd" clip-rule="evenodd" d="M948.383 457.142C941.837 457.142 936.129 455.81 931.258 453.146C926.388 450.482 922.582 446.829 919.842 442.187C917.102 437.544 915.733 432.217 915.733 426.204C915.733 421.562 916.494 417.3 918.016 413.418C919.538 409.537 921.669 406.188 924.409 403.372C927.149 400.48 930.383 398.273 934.112 396.751C937.918 395.153 942.028 394.353 946.442 394.353C950.552 394.353 954.357 395.114 957.858 396.637C961.359 398.083 964.365 400.176 966.877 402.915C969.464 405.579 971.443 408.738 972.813 412.391C974.183 416.044 974.792 420.04 974.639 424.378L974.525 429.401H931.455C931.829 431.235 932.448 432.909 933.313 434.424C934.912 437.088 937.119 439.18 939.935 440.703C942.827 442.149 946.213 442.872 950.095 442.872C952.759 442.872 955.194 442.453 957.401 441.616C959.608 440.779 961.968 439.333 964.479 437.278L972.242 448.123C970.035 450.102 967.6 451.776 964.936 453.146C962.272 454.44 959.532 455.429 956.716 456.114C953.9 456.799 951.122 457.142 948.383 457.142ZM957.287 413.418C958.505 415.093 959.19 416.957 959.342 419.012V419.469H931.596C931.897 418.146 932.317 416.929 932.857 415.816C934.074 413.304 935.825 411.401 938.108 410.108C940.467 408.814 943.321 408.167 946.67 408.167C948.953 408.167 951.008 408.623 952.835 409.537C954.661 410.45 956.145 411.744 957.287 413.418Z" shape-rendering="optimizeQuality" fill="#0C00F4"/>
</svg>
